<?xml version="1.0" encoding="UTF-8"?>
<svg version="1.1" xmlns="http://www.w3.org/2000/svg" width="512" height="512">
<path d="M0 0 C18.44228645 8.32768693 34.09247626 26.96247582 47 42 C47.845625 42.96421875 48.69125 43.9284375 49.5625 44.921875 C57.87847405 54.57053719 65.47643591 64.72654171 73 75 C73.53802246 75.7326709 74.07604492 76.4653418 74.63037109 77.22021484 C109.16012401 124.46972432 140.72605176 183.62990889 132.28149414 244.1081543 C126.07268375 279.38248162 105.99323839 311.87773294 76.86425781 332.70898438 C46.22414477 353.92754354 8.95994124 361.80084063 -27.85253906 355.92358398 C-62.09543186 349.32490033 -93.00731981 329.5051554 -113.5625 301.3125 C-135.46347048 268.58987352 -143.34449672 231.56802995 -135.9375 192.8125 C-132.02163571 173.71168665 -125.44505122 155.54197181 -117 138 C-116.68595215 137.34161133 -116.3719043 136.68322266 -116.04833984 136.00488281 C-113.78685012 131.28983483 -111.41840146 126.63624735 -109 122 C-108.61537598 121.25588867 -108.23075195 120.51177734 -107.83447266 119.74511719 C-94.44274245 94.01114863 -77.59286516 69.63091521 -58.50830078 47.77905273 C-56.56355631 45.48521121 -54.69790667 43.13113009 -52.81640625 40.78515625 C-48.10200434 35.01024594 -43.03526364 29.68966686 -37.75 24.4375 C-36.8319458 23.52363525 -35.9138916 22.60977051 -34.96801758 21.66821289 C-10.74955358 -2.14991072 -10.74955358 -2.14991072 0 0 Z " fill="#6CBFF8" transform="translate(232,155)"/>
<path d="M0 0 C0.88340057 0.00215515 1.76680115 0.0043103 2.67697144 0.00653076 C15.7862585 0.05784029 28.53408603 0.44704233 41.375 3.3125 C42.25720215 3.50054199 43.1394043 3.68858398 44.04833984 3.88232422 C96.9936005 15.45863186 143.89867392 47.86078217 173.37402344 93.33081055 C175.44787511 96.61602796 177.42880178 99.95036496 179.375 103.3125 C179.76139648 103.97685059 180.14779297 104.64120117 180.54589844 105.32568359 C207.6340507 152.51992037 212.76309627 209.08837622 199.10546875 261.29296875 C194.91642644 276.36433564 188.76728011 290.55855858 181.375 304.3125 C180.78460938 305.44429688 180.19421875 306.57609375 179.5859375 307.7421875 C170.55895686 324.37487948 158.64775555 338.90969667 145.375 352.3125 C144.78589844 352.91336426 144.19679688 353.51422852 143.58984375 354.13330078 C136.53159617 361.28130421 128.73887953 367.46779458 120.625 373.375 C119.59890625 374.12910156 118.5728125 374.88320313 117.515625 375.66015625 C113.81583471 377.60668771 111.50077732 377.75772777 107.375 377.3125 C104.65895117 375.38267583 103.62807394 373.97049225 102.4375 370.875 C102.35280477 367.40249564 103.34643577 366.13682214 105.375 363.3125 C107.48816969 361.36224225 109.75790083 359.65424087 112.0625 357.9375 C113.32032625 356.97698109 114.57684241 356.01474412 115.83203125 355.05078125 C116.43869629 354.58623535 117.04536133 354.12168945 117.67041016 353.64306641 C121.03686514 351.01528359 124.20528033 348.17083526 127.375 345.3125 C123.9948765 341.20213705 120.49422778 337.38462698 116.66796875 333.68359375 C115.83458984 332.87599609 115.00121094 332.06839844 114.14257812 331.23632812 C112.41043008 329.5671196 110.67070952 327.90573647 108.92382812 326.25195312 C108.09689453 325.44564453 107.26996094 324.63933594 106.41796875 323.80859375 C105.66539795 323.08857178 104.91282715 322.3685498 104.13745117 321.62670898 C101.98867694 318.80523358 101.57576242 316.82865963 101.375 313.3125 C103.50543478 308.74728261 103.50543478 308.74728261 106.375 307.3125 C109.76731866 306.76972901 112.25627019 306.53425979 115.16943359 308.56079102 C116.08716553 309.39888306 116.08716553 309.39888306 117.0234375 310.25390625 C118.06733643 311.20644287 118.06733643 311.20644287 119.13232422 312.17822266 C123.11505431 315.96844979 127.00801807 319.84208096 130.875 323.75 C131.69742187 324.57693359 132.51984375 325.40386719 133.3671875 326.25585938 C135.37212113 328.27244959 137.37466253 330.29135236 139.375 332.3125 C143.98938802 328.74007057 147.37643706 325.05670703 150.75 320.3125 C151.22477783 319.65314453 151.69955566 318.99378906 152.1887207 318.31445312 C156.57047015 312.16182972 160.59662766 305.85648508 164.375 299.3125 C165.03113281 298.1884375 165.68726563 297.064375 166.36328125 295.90625 C180.84839325 270.39290026 186.77452357 242.26306147 189.375 213.3125 C188.24481445 213.33344727 187.11462891 213.35439453 185.95019531 213.37597656 C181.75338431 213.44842696 177.55662848 213.49431784 173.359375 213.53222656 C171.5435252 213.55233061 169.72774005 213.57961835 167.91210938 213.61425781 C165.30061895 213.66283039 162.68998502 213.68548027 160.078125 213.703125 C159.26756653 213.72377014 158.45700806 213.74441528 157.62188721 213.76568604 C154.01218477 213.76712009 151.83578629 213.64486162 148.86621094 211.50292969 C146.64884047 208.24584916 146.76741259 206.16055359 147.375 202.3125 C149.34866096 199.654193 150.91791542 197.64792472 154.25601196 196.87948608 C156.5064285 196.73406076 158.7031487 196.74998401 160.95703125 196.82421875 C161.77121017 196.83129349 162.5853891 196.83836823 163.42424011 196.84565735 C166.01294643 196.87354402 168.59945273 196.93626684 171.1875 197 C172.94723428 197.0250905 174.70700263 197.04790236 176.46679688 197.06835938 C180.77037296 197.12335128 185.0723141 197.20958008 189.375 197.3125 C185.16923147 155.22862686 172.78937099 113.12701946 142.703125 81.87890625 C141.375 80.3125 141.375 80.3125 141.375 78.3125 C134.66067794 83.99830793 128.50779652 90.1307841 122.37890625 96.43554688 C121.66089844 97.16451172 120.94289063 97.89347656 120.203125 98.64453125 C119.5627832 99.30171143 118.92244141 99.9588916 118.26269531 100.63598633 C115.00909308 103.52559918 113.21061557 104.35647977 108.8125 104.125 C104.04142175 102.9972906 104.04142175 102.9972906 102.375 100.3125 C101.35013428 96.94508406 100.95615298 95.16157143 102.53442383 91.9621582 C104.64613483 88.92217949 107.06513281 86.37129216 109.69921875 83.79296875 C110.20548294 83.28953445 110.71174713 82.78610016 111.23335266 82.26741028 C112.83840218 80.67348252 114.45029144 79.08668293 116.0625 77.5 C117.15736179 76.41517836 118.25176774 75.32989645 119.34570312 74.24414062 C122.01689128 71.59490652 124.69423284 68.95203923 127.375 66.3125 C98.48375691 36.95077599 57.19564304 21.57116034 16.8984375 17.23828125 C16.07432373 17.14824829 15.25020996 17.05821533 14.40112305 16.9654541 C12.39258442 16.74624811 10.38381564 16.5291527 8.375 16.3125 C8.39594727 17.44268555 8.41689453 18.57287109 8.43847656 19.73730469 C8.51092696 23.93411569 8.55681784 28.13087152 8.59472656 32.328125 C8.61483061 34.1439748 8.64211835 35.95975995 8.67675781 37.77539062 C8.72533039 40.38688105 8.74798027 42.99751498 8.765625 45.609375 C8.78627014 46.41993347 8.80691528 47.23049194 8.82818604 48.06561279 C8.82963519 51.71332007 8.73133113 53.84042154 6.49902344 56.79785156 C3.94901467 58.61627161 2.51782538 59.23767082 -0.625 59.3125 C-6.26355422 57.03539157 -6.26355422 57.03539157 -7.625 54.3125 C-7.71191001 51.46820643 -7.74053802 48.64870824 -7.72265625 45.8046875 C-7.72053383 44.54375778 -7.72053383 44.54375778 -7.71836853 43.25735474 C-7.71276237 40.56736725 -7.70020886 37.87746241 -7.6875 35.1875 C-7.68248579 33.36588662 -7.67792275 31.54427193 -7.67382812 29.72265625 C-7.66279094 25.25257223 -7.6455222 20.78255014 -7.625 16.3125 C-51.42707074 21.498546 -94.68768928 34.09404359 -126.625 66.3125 C-125.8729126 67.0331665 -125.1208252 67.75383301 -124.34594727 68.49633789 C-121.54825695 71.18507695 -118.77075985 73.89391441 -115.9987793 76.60913086 C-114.79842919 77.77938727 -113.59273849 78.94419248 -112.3815918 80.10327148 C-110.63703871 81.77468671 -108.91291445 83.46505352 -107.19140625 85.16015625 C-106.64972305 85.67087173 -106.10803986 86.18158722 -105.54994202 86.70777893 C-101.86528234 90.38910189 -100.79840814 93.13236834 -100.625 98.3125 C-101.41229084 100.96066011 -102.14780109 101.94134529 -104.3125 103.625 C-107.77123322 104.65327204 -110.1210805 104.14713687 -113.625 103.3125 C-115.94362293 101.5050551 -117.78711185 99.85700523 -119.77734375 97.74609375 C-120.32234024 97.19260757 -120.86733673 96.6391214 -121.42884827 96.06886292 C-123.15474451 94.30956132 -124.85852735 92.53051782 -126.5625 90.75 C-127.73362314 89.54876088 -128.90613606 88.34887503 -130.08007812 87.15039062 C-132.94470919 84.21984655 -135.78969934 81.27141914 -138.625 78.3125 C-141.36122655 81.00309886 -144.02818607 83.65132667 -146.37890625 86.6875 C-146.84103516 87.28046875 -147.30316406 87.8734375 -147.77929688 88.484375 C-148.24400391 89.08765625 -148.70871094 89.6909375 -149.1875 90.3125 C-150.57529427 92.09926126 -151.96358909 93.88563236 -153.35205078 95.671875 C-154.51794881 97.17452839 -155.67913701 98.68083305 -156.83984375 100.1875 C-159.07711243 102.85068197 -159.99382701 103.2283436 -163.4375 103.6875 C-166.625 103.3125 -166.625 103.3125 -169.5 101.1875 C-172.03826089 97.75338233 -172.03093261 96.48631995 -171.625 92.3125 C-159.19863734 64.30942921 -127.2057756 41.27421782 -101.625 26.3125 C-100.49578125 25.63832031 -99.3665625 24.96414062 -98.203125 24.26953125 C-68.23393497 7.28473011 -34.19926833 -0.15020994 0 0 Z " fill="#6ABDD5" transform="translate(304.625,-0.3125)"/>
<path d="M0 0 C25.47762112 -2.66472043 25.47762112 -2.66472043 32.33935547 1.37841797 C36.03492573 5.12346867 38.02194229 9.71904176 39.96533203 14.54931641 C41.34082445 17.80726658 43.08914416 20.77524247 44.87817383 23.82006836 C47.02175185 27.49129046 49.00983179 31.24400363 51 35 C51.5273877 35.99483398 51.5273877 35.99483398 52.06542969 37.00976562 C73.69775589 78.20433897 87.83080446 124.8350335 73.69189453 170.83007812 C62.39312014 205.93720832 38.87591658 234.39568499 6.33154297 251.81835938 C-25.69724069 268.05074816 -64.70011761 271.37714122 -98.96875 260.45703125 C-109.19611815 256.99508782 -118.6551897 252.37780563 -128 247 C-124.71945355 245.90401608 -122.92363933 246.10980583 -119.6875 247.25 C-104.01144869 252.15866253 -89.32536904 252.60433946 -73 252 C-72.25717773 251.97341309 -71.51435547 251.94682617 -70.74902344 251.91943359 C-41.0010128 250.43886645 -12.14073709 232.9896286 8 212 C33.35899479 183.87111175 43.75752861 148.63247396 42.19384766 111.18701172 C39.78182939 71.53148722 19.84537073 33.53158106 0 0 Z " fill="#5FA7EE" transform="translate(286,246)"/>
<path d="M0 0 C18.44228645 8.32768693 34.09247626 26.96247582 47 42 C47.845625 42.96421875 48.69125 43.9284375 49.5625 44.921875 C57.87827914 54.57031105 65.4620636 64.73783424 73 75 C73.54237305 75.73653809 74.08474609 76.47307617 74.64355469 77.23193359 C76.08203244 79.19120796 77.51218575 81.15613593 78.9375 83.125 C79.35652588 83.69855225 79.77555176 84.27210449 80.20727539 84.86303711 C83 88.76466423 83 88.76466423 83 91 C26.24 91 -30.52 91 -89 91 C-88.15935368 87.6374147 -87.70014812 86.2444279 -85.84765625 83.56640625 C-85.40599121 82.92405029 -84.96432617 82.28169434 -84.50927734 81.61987305 C-84.03184082 80.94093994 -83.5544043 80.26200684 -83.0625 79.5625 C-82.56959473 78.85456299 -82.07668945 78.14662598 -81.56884766 77.41723633 C-74.19108428 66.9006773 -66.22683646 56.86408516 -58 47 C-57.58621094 46.49452637 -57.17242187 45.98905273 -56.74609375 45.46826172 C-16.74849783 -3.34969957 -16.74849783 -3.34969957 0 0 Z " fill="#DCEAFD" transform="translate(232,155)"/>
<path d="M0 0 C21.05161041 13.03914828 37.83980516 39.36827103 44.53979492 62.89550781 C47.1962629 75.04338788 45.66595879 89.01936257 39.421875 99.69921875 C31.69736855 111.33817104 21.72497087 119.55590619 8 123 C-6.1456692 125.72986599 -20.01956283 123.06923264 -32 115 C-42.41554266 107.44646732 -49.28786586 95.98863579 -51.6796875 83.35546875 C-54.44511007 63.01949543 -44.97954198 43.07949 -33.28515625 26.9921875 C-10.18909498 -3.24983461 -10.18909498 -3.24983461 0 0 Z " fill="#DCEAFD" transform="translate(53,127)"/>
<path d="M0 0 C21.05161041 13.03914828 37.83980516 39.36827103 44.53979492 62.89550781 C47.1962629 75.04338788 45.66595879 89.01936257 39.421875 99.69921875 C31.69736855 111.33817104 21.72497087 119.55590619 8 123 C-3.97250865 125.31048412 -16.21152291 123.85332267 -27 118 C-27 117.34 -27 116.68 -27 116 C-26.14019531 115.98582031 -25.28039062 115.97164063 -24.39453125 115.95703125 C-9.07488579 115.33889943 2.28332868 110.32799137 12.75 99.1875 C22.61219844 87.40320255 23.9262166 74.73821855 23 60 C22.49539565 56.04809864 21.49433689 52.68771951 20 49 C19.75781738 48.39542969 19.51563477 47.79085937 19.26611328 47.16796875 C12.53135091 30.73977397 2.36184329 16.66268461 -10 4 C-9 1 -9 1 -7.25 -0.25 C-4.37580291 -1.2080657 -2.90463968 -0.81571605 0 0 Z " fill="#BFD9FD" transform="translate(53,127)"/>
<path d="M0 0 C6.72152795 5.37722236 11.81569844 11.97421873 13.1953125 20.66015625 C13.59814219 29.13300731 10.95239881 37.03389264 5.625 43.625 C-0.44497649 49.98215818 -7.615398 53.25024402 -16.375 53.5625 C-24.68463393 53.42446621 -31.51727719 49.79188563 -37.49609375 44.1875 C-43.61937916 37.17329777 -44.73176496 29.1659778 -44.5234375 20.12109375 C-43.87674643 12.66910707 -40.8372321 7.50653755 -35.5 2.375 C-24.22344303 -6.59113459 -12.34675826 -6.77861238 0 0 Z " fill="#DAEAFC" transform="translate(287.1875,396.75)"/>
<path d="M0 0 C18.44228645 8.32768693 34.09247626 26.96247582 47 42 C47.845625 42.96421875 48.69125 43.9284375 49.5625 44.921875 C57.87827914 54.57031105 65.4620636 64.73783424 73 75 C73.54237305 75.73653809 74.08474609 76.47307617 74.64355469 77.23193359 C76.08203244 79.19120796 77.51218575 81.15613593 78.9375 83.125 C79.35652588 83.69855225 79.77555176 84.27210449 80.20727539 84.86303711 C83 88.76466423 83 88.76466423 83 91 C26.24 91 -30.52 91 -89 91 C-89 90.67 -89 90.34 -89 90 C-42.47 89.67 4.06 89.34 52 89 C39.76016365 69.96025456 26.76286508 52.12034586 12 35 C11.38511719 34.28328125 10.77023438 33.5665625 10.13671875 32.828125 C8.44131385 30.86970979 6.72584887 28.93165093 5 27 C3.73542969 25.57880859 3.73542969 25.57880859 2.4453125 24.12890625 C-3.04971624 18.00994573 -8.68807101 12.29890335 -15 7 C-14 4 -14 4 -12.36328125 2.83203125 C-4.75409836 -0.95081967 -4.75409836 -0.95081967 0 0 Z " fill="#BED9FC" transform="translate(232,155)"/>
<path d="M0 0 C5.16844691 2.98746049 8.53631224 6.26087804 11.375 11.5 C11.71144531 12.11617188 12.04789063 12.73234375 12.39453125 13.3671875 C15.75122572 20.75498082 15.4897616 29.28102147 12.75 36.8125 C8.70318233 45.58060494 3.3102336 49.9318044 -5.625 53.5 C-12.7755039 55.67986235 -19.79175574 55.17056748 -26.45703125 51.83203125 C-33.39905586 47.56675126 -38.36342055 42.24931685 -41.875 34.875 C-43.80930128 26.17064425 -43.4363168 18.12978048 -38.625 10.5 C-29.33348284 -2.78735096 -14.83756738 -6.74434881 0 0 Z " fill="#DBEAFC" transform="translate(201.625,306.5)"/>
<path d="M0 0 C3.639381 0.81993872 4.96507553 1.56018323 7.01747131 4.67982483 C7.70497131 7.42982483 7.70497131 7.42982483 7.01747131 10.67982483 C2.30611445 17.10474003 -3.79176892 22.66507438 -9.38682556 28.30873108 C-10.3031929 29.23648849 -11.21956024 30.16424591 -12.16369629 31.12011719 C-15.17223716 34.16481233 -18.18609424 37.20421025 -21.20127869 40.24232483 C-21.71608984 40.76108185 -22.23090099 41.27983887 -22.76131248 41.8143158 C-27.62226101 46.71161044 -32.48568681 51.6064356 -37.35414886 56.4962616 C-43.56045241 62.73021963 -49.75478948 68.97557948 -55.93390417 75.2364912 C-60.2938849 79.65221554 -64.66715604 84.05449568 -69.05047083 88.44705677 C-71.66348216 91.06632241 -74.27023642 93.69117757 -76.86276245 96.33073425 C-79.74888037 99.26857595 -82.66195772 102.17816569 -85.57823181 105.08607483 C-86.43038773 105.96182663 -87.28254364 106.83757843 -88.16052246 107.73986816 C-94.02776966 113.52582666 -94.02776966 113.52582666 -98.91795349 114.31459045 C-101.98252869 113.67982483 -101.98252869 113.67982483 -104.42002869 112.11732483 C-106.04391382 109.58406402 -106.69258419 107.79860428 -106.60180855 104.77712822 C-105.1045588 99.70642084 -100.40546385 96.13916021 -96.73033142 92.52186584 C-95.73531764 91.51736221 -94.74179816 90.51137652 -93.74966431 89.50402832 C-91.05476766 86.77724896 -88.33823101 84.07304314 -85.61628222 81.37329984 C-82.76896802 78.54372278 -79.9387894 75.69708943 -77.10583496 72.85314941 C-72.34572945 68.08031289 -67.57106434 63.32241573 -62.78794861 58.57264709 C-57.26020171 53.08299552 -51.75812593 47.5685796 -46.26870769 42.04062134 C-41.55283631 37.29297199 -36.82344466 32.55911569 -32.08250958 27.83649391 C-29.25189261 25.01678365 -26.4262022 22.1925729 -23.61262321 19.35585213 C-20.96643937 16.689429 -18.30368189 14.04074717 -15.62722969 11.4047184 C-14.64848631 10.43522151 -13.67563367 9.45973539 -12.70925903 8.47790909 C-4.48951151 0.13895033 -4.48951151 0.13895033 0 0 Z " fill="#DCEAFC" transform="translate(278.98252868652344,319.32017517089844)"/>
<path d="M0 0 C4.38773175 2.19386588 7.09334197 4.44520582 9 9 C9.57057837 14.23030176 8.84948106 17.57839146 6 22 C3.67479087 24.76118585 2.01210609 25.83466359 -1.55859375 26.41796875 C-6.11650872 26.64679216 -9.85546365 26.69777952 -13.5625 23.8125 C-17.18569816 19.63188674 -18.22792839 16.98183585 -17.9375 11.5 C-17.30905296 6.94943766 -15.65029757 4.86809095 -12 2 C-7.95308865 -0.6979409 -4.75253951 -0.65804393 0 0 Z " fill="#6EBFF8" transform="translate(192,319)"/>
<path d="M0 0 C3.16961356 1.28133314 4.57820229 2.5200233 6.8125 5.0625 C8.92684978 10.29273366 8.92684978 15.70726634 6.8125 20.9375 C3.31435235 24.91815077 0.37272338 26.2121209 -4.875 26.5625 C-9.76503463 26.43092956 -12.23782417 24.92630873 -15.72265625 21.60546875 C-18.38075213 18.26455925 -18.44587697 14.45890245 -18.42578125 10.359375 C-17.68611227 6.26065882 -15.06801792 3.67060627 -12 1 C-8.31064308 -0.84467846 -4.03564658 -0.35009552 0 0 Z " fill="#6DBFF8" transform="translate(276,408)"/>
</svg>
